<svg width="669" height="783" viewBox="0 0 669 783" fill="none" xmlns="http://www.w3.org/2000/svg">
<g clip-path="url(#clip0_89_328)">
<mask id="mask0_89_328" style="mask-type:luminance" maskUnits="userSpaceOnUse" x="0" y="0" width="669" height="783">
<path d="M0 0H669V783H0V0Z" fill="white"/>
</mask>
<g mask="url(#mask0_89_328)">
<path d="M334.5 782.807C332.24 782.781 330.068 782.349 327.974 781.505C6.36456 640.63 0.161438 157.37 0.161438 136.823C0.161438 135.755 0.265605 134.693 0.473938 133.641C0.687479 132.594 0.994771 131.573 1.40623 130.583C1.81248 129.594 2.31769 128.656 2.91144 127.766C3.5104 126.875 4.18227 126.052 4.94269 125.297C5.6979 124.536 6.52602 123.859 7.41665 123.266C8.30727 122.672 9.24477 122.172 10.2344 121.76C11.2239 121.349 12.2448 121.042 13.2969 120.833C14.3489 120.625 15.4062 120.521 16.4791 120.521C177.531 119.703 321.281 4.92181 322.589 3.78118C324.021 2.63014 325.609 1.74472 327.344 1.13014C329.078 0.515555 330.865 0.203056 332.703 0.192639H336.297C338.161 0.182223 339.979 0.489515 341.745 1.1041C343.505 1.71868 345.115 2.6093 346.573 3.78118C347.88 4.92181 491.635 119.703 652.682 120.521C653.755 120.521 654.812 120.625 655.865 120.833C656.917 121.042 657.937 121.349 658.927 121.76C659.917 122.172 660.854 122.672 661.75 123.266C662.641 123.859 663.464 124.536 664.219 125.297C664.979 126.052 665.656 126.875 666.25 127.766C666.844 128.656 667.349 129.594 667.755 130.583C668.167 131.573 668.479 132.594 668.687 133.641C668.896 134.693 669 135.755 669 136.823C669 157.37 662.797 640.63 341.187 781.505C339.042 782.37 336.812 782.802 334.5 782.807ZM33.2864 152.641C37.2031 236.443 69.8385 626.776 334.5 748.568C599.161 626.776 631.797 236.443 635.714 152.641C491.307 145.63 367.135 60.5208 334.5 35.7343C301.865 60.5208 177.693 145.63 33.2864 152.641Z" fill="black"/>
</g>
<path d="M334.5 677.156C332.224 677.214 330.047 676.781 327.974 675.849C94.1511 573.62 89.7448 223.401 89.7448 208.563C89.7448 207.495 89.849 206.432 90.0573 205.38C90.2656 204.333 90.5729 203.313 90.9844 202.323C91.3959 201.333 91.8959 200.396 92.4948 199.505C93.0886 198.615 93.7656 197.792 94.5209 197.037C95.2813 196.276 96.1042 195.599 96.9948 195.005C97.8854 194.412 98.8281 193.912 99.8177 193.5C100.807 193.089 101.828 192.781 102.875 192.573C103.927 192.365 104.99 192.26 106.063 192.26C220.281 192.26 322.099 110.734 323.078 109.432C324.536 108.266 326.146 107.37 327.911 106.755C329.672 106.141 331.49 105.839 333.359 105.844H335.969C337.839 105.839 339.651 106.141 341.417 106.755C343.182 107.37 344.792 108.266 346.25 109.432C347.229 110.245 449.208 190.953 563.266 192.26C564.339 192.26 565.396 192.365 566.448 192.573C567.5 192.781 568.521 193.089 569.51 193.5C570.5 193.912 571.438 194.412 572.328 195.005C573.219 195.599 574.047 196.276 574.802 197.037C575.563 197.792 576.234 198.615 576.833 199.505C577.427 200.396 577.932 201.333 578.339 202.323C578.75 203.313 579.057 204.333 579.271 205.38C579.479 206.432 579.583 207.495 579.583 208.563C579.583 223.401 575.177 573.62 341.354 675.849C339.172 676.828 336.885 677.266 334.5 677.156ZM122.375 224.214C126.13 291.88 152.401 557.479 334.5 643.078C516.432 557.479 542.38 291.88 546.62 224.214C447.25 217.859 362.24 161.604 334.5 141.552C307.25 161.604 222.24 217.859 122.375 224.214Z" fill="black"/>
<path d="M404.5 377.802H264.5C263.427 377.802 262.365 377.698 261.318 377.49C260.266 377.281 259.245 376.974 258.255 376.563C257.266 376.151 256.323 375.651 255.432 375.057C254.542 374.464 253.719 373.787 252.964 373.031C252.203 372.271 251.526 371.448 250.932 370.557C250.339 369.667 249.833 368.729 249.422 367.74C249.016 366.75 248.703 365.729 248.495 364.682C248.286 363.63 248.182 362.568 248.182 361.5V328.891C248.208 326.125 248.37 323.37 248.667 320.62C248.964 317.87 249.391 315.141 249.953 312.432C250.516 309.729 251.208 307.052 252.036 304.412C252.859 301.776 253.807 299.182 254.885 296.636C255.964 294.089 257.161 291.599 258.484 289.167C259.802 286.74 261.24 284.38 262.792 282.089C264.344 279.797 266 277.589 267.771 275.464C269.536 273.333 271.401 271.297 273.37 269.349C275.333 267.406 277.391 265.557 279.536 263.813C281.682 262.068 283.911 260.432 286.219 258.906C288.521 257.375 290.901 255.964 293.344 254.667C295.786 253.375 298.292 252.198 300.849 251.146C303.406 250.094 306.01 249.172 308.661 248.37C311.313 247.573 313.995 246.906 316.708 246.37C319.422 245.833 322.156 245.432 324.911 245.162C327.667 244.896 330.427 244.76 333.193 244.76H335.807C337.198 244.76 338.589 244.792 339.974 244.859C341.365 244.932 342.755 245.031 344.135 245.167C345.521 245.307 346.901 245.474 348.281 245.677C349.656 245.88 351.026 246.12 352.391 246.391C353.755 246.662 355.109 246.969 356.464 247.307C357.813 247.641 359.151 248.016 360.484 248.417C361.813 248.823 363.135 249.255 364.443 249.724C365.755 250.193 367.052 250.693 368.339 251.224C369.625 251.755 370.896 252.323 372.151 252.917C373.411 253.51 374.651 254.135 375.88 254.792C377.104 255.443 378.318 256.13 379.51 256.844C380.703 257.557 381.88 258.302 383.036 259.073C384.193 259.849 385.328 260.646 386.448 261.474C387.563 262.302 388.661 263.162 389.734 264.042C390.813 264.922 391.865 265.833 392.896 266.766C393.927 267.698 394.932 268.656 395.917 269.641C396.901 270.625 397.859 271.63 398.797 272.662C399.729 273.688 400.635 274.74 401.521 275.818C402.401 276.891 403.26 277.984 404.089 279.104C404.917 280.219 405.719 281.354 406.49 282.511C407.26 283.667 408.005 284.844 408.724 286.037C409.438 287.229 410.125 288.438 410.781 289.662C411.432 290.891 412.057 292.13 412.656 293.386C413.25 294.646 413.813 295.912 414.344 297.198C414.88 298.484 415.38 299.781 415.849 301.089C416.318 302.396 416.75 303.719 417.156 305.047C417.563 306.375 417.932 307.719 418.271 309.068C418.609 310.417 418.911 311.771 419.182 313.136C419.453 314.495 419.693 315.865 419.896 317.24C420.099 318.615 420.271 319.995 420.406 321.38C420.542 322.766 420.646 324.151 420.714 325.537C420.781 326.927 420.818 328.318 420.818 329.708V362.313C420.766 363.349 420.615 364.37 420.37 365.38C420.12 366.386 419.781 367.359 419.349 368.302C418.917 369.245 418.396 370.141 417.792 370.984C417.188 371.828 416.51 372.604 415.76 373.323C415.005 374.037 414.193 374.672 413.318 375.229C412.443 375.792 411.526 376.261 410.563 376.646C409.599 377.031 408.604 377.318 407.583 377.516C406.568 377.708 405.536 377.807 404.5 377.802ZM280.818 345.193H388.182V328.891C388.156 327.193 388.047 325.5 387.854 323.818C387.667 322.13 387.391 320.458 387.036 318.797C386.682 317.136 386.25 315.495 385.734 313.88C385.224 312.261 384.63 310.672 383.964 309.115C383.297 307.552 382.552 306.026 381.734 304.542C380.922 303.052 380.031 301.604 379.073 300.203C378.12 298.802 377.094 297.448 376.005 296.146C374.917 294.844 373.766 293.599 372.557 292.406C371.344 291.219 370.078 290.089 368.76 289.021C367.438 287.953 366.073 286.953 364.651 286.016C363.234 285.083 361.776 284.219 360.271 283.427C358.771 282.636 357.234 281.917 355.661 281.271C354.089 280.63 352.49 280.063 350.865 279.578C349.24 279.089 347.589 278.682 345.922 278.354C344.255 278.026 342.578 277.781 340.891 277.615C339.198 277.448 337.505 277.37 335.807 277.37H333.193C331.479 277.37 329.766 277.453 328.063 277.62C326.354 277.787 324.656 278.042 322.974 278.375C321.292 278.708 319.63 279.125 317.99 279.62C316.349 280.12 314.734 280.698 313.151 281.354C311.568 282.011 310.016 282.74 308.505 283.547C306.99 284.354 305.521 285.234 304.094 286.188C302.667 287.141 301.292 288.162 299.964 289.25C298.641 290.333 297.37 291.484 296.156 292.698C294.943 293.912 293.792 295.177 292.703 296.505C291.62 297.828 290.599 299.203 289.646 300.63C288.693 302.052 287.807 303.521 287 305.037C286.193 306.547 285.458 308.094 284.802 309.677C284.146 311.261 283.568 312.875 283.073 314.516C282.573 316.151 282.156 317.813 281.823 319.495C281.49 321.177 281.234 322.87 281.068 324.578C280.901 326.281 280.818 327.99 280.818 329.708V345.193Z" fill="black"/>
<path d="M421.958 512.641H247.042C245.969 512.641 244.906 512.537 243.854 512.328C242.807 512.12 241.786 511.813 240.797 511.401C239.807 510.99 238.865 510.49 237.974 509.896C237.083 509.302 236.26 508.625 235.5 507.865C234.745 507.11 234.068 506.287 233.474 505.396C232.875 504.505 232.375 503.568 231.964 502.578C231.557 501.589 231.245 500.568 231.036 499.521C230.828 498.469 230.724 497.406 230.724 496.339V361.5C230.724 360.427 230.828 359.37 231.036 358.318C231.245 357.271 231.557 356.25 231.964 355.261C232.375 354.271 232.875 353.333 233.474 352.443C234.068 351.552 234.745 350.729 235.5 349.969C236.26 349.214 237.083 348.537 237.974 347.943C238.865 347.349 239.807 346.844 240.797 346.438C241.786 346.026 242.807 345.719 243.854 345.511C244.906 345.302 245.969 345.193 247.042 345.193H421.958C423.031 345.193 424.094 345.302 425.141 345.511C426.193 345.719 427.214 346.026 428.203 346.438C429.193 346.844 430.135 347.349 431.026 347.943C431.917 348.537 432.74 349.214 433.495 349.969C434.255 350.729 434.932 351.552 435.526 352.443C436.12 353.333 436.625 354.271 437.036 355.261C437.443 356.25 437.755 357.271 437.964 358.318C438.172 359.37 438.276 360.427 438.276 361.5V496.339C438.276 497.406 438.172 498.469 437.964 499.521C437.755 500.568 437.443 501.589 437.036 502.578C436.625 503.568 436.12 504.505 435.526 505.396C434.932 506.287 434.255 507.11 433.495 507.865C432.74 508.625 431.917 509.302 431.026 509.896C430.135 510.49 429.193 510.99 428.203 511.401C427.214 511.813 426.193 512.12 425.141 512.328C424.094 512.537 423.031 512.641 421.958 512.641ZM263.359 480.031H405.641V377.802H263.359V480.031Z" fill="black"/>
</g>
<defs>
<clipPath id="clip0_89_328">
<rect width="669" height="783" fill="white"/>
</clipPath>
</defs>
</svg>
